<?xml version="1.0" encoding="UTF-8" standalone="no"?>
<!DOCTYPE svg PUBLIC "-//W3C//DTD SVG 1.1//EN"
 "http://www.w3.org/Graphics/SVG/1.1/DTD/svg11.dtd">
<!-- Generated by graphviz version 8.1.0 (0)
 -->
<!-- Pages: 1 -->
<svg width="63pt" height="193pt"
 viewBox="0.00 0.00 63.00 193.00" xmlns="http://www.w3.org/2000/svg" xmlns:xlink="http://www.w3.org/1999/xlink">
<g id="page0,1_graph0" class="graph" transform="scale(1 1) rotate(0) translate(4 189)">
<polygon fill="white" stroke="none" points="-4,4 -4,-189 59,-189 59,4 -4,4"/>
<!-- 0 -->
<g id="node1" class="node">
<title>0</title>
<path fill="none" stroke="black" d="M12,-0.5C12,-0.5 42,-0.5 42,-0.5 48,-0.5 54,-6.5 54,-12.5 54,-12.5 54,-62 54,-62 54,-68 48,-74 42,-74 42,-74 12,-74 12,-74 6,-74 0,-68 0,-62 0,-62 0,-12.5 0,-12.5 0,-6.5 6,-0.5 12,-0.5"/>
<text text-anchor="middle" x="26.88" y="-56.7" font-family="Times,serif" font-size="14.00"> </text>
<polyline fill="none" stroke="black" points="0,-49.5 53.75,-49.5"/>
<text text-anchor="middle" x="26.88" y="-32.2" font-family="Times,serif" font-size="14.00">Dec</text>
<polyline fill="none" stroke="black" points="0,-25 53.75,-25"/>
<text text-anchor="middle" x="26.88" y="-7.7" font-family="Times,serif" font-size="14.00"> </text>
</g>
<!-- 1 -->
<g id="node2" class="node">
<title>1</title>
<path fill="none" stroke="black" d="M13,-111C13,-111 43,-111 43,-111 49,-111 55,-117 55,-123 55,-123 55,-172.5 55,-172.5 55,-178.5 49,-184.5 43,-184.5 43,-184.5 13,-184.5 13,-184.5 7,-184.5 1,-178.5 1,-172.5 1,-172.5 1,-123 1,-123 1,-117 7,-111 13,-111"/>
<text text-anchor="middle" x="27.38" y="-167.2" font-family="Times,serif" font-size="14.00"> </text>
<polyline fill="none" stroke="black" points="1,-160 54.25,-160"/>
<text text-anchor="middle" x="27.62" y="-142.7" font-family="Times,serif" font-size="14.00">Lit 2</text>
<polyline fill="none" stroke="black" points="1,-135.5 54.25,-135.5"/>
<text text-anchor="middle" x="27.38" y="-118.2" font-family="Times,serif" font-size="14.00"> </text>
</g>
<!-- 1&#45;&gt;0 -->
<g id="edge1" class="edge">
<title>1:o0&#45;&gt;0:i0</title>
<path fill="none" stroke="black" d="M27,-110.5C27,-98.88 27,-93.58 27,-85.42"/>
<polygon fill="black" stroke="black" points="30.5,-85.5 27,-75.5 23.5,-85.5 30.5,-85.5"/>
</g>
</g>
</svg>
