<?xml version="1.0" encoding="UTF-8" standalone="no"?>
<!DOCTYPE svg PUBLIC "-//W3C//DTD SVG 1.1//EN"
 "http://www.w3.org/Graphics/SVG/1.1/DTD/svg11.dtd">
<!-- Generated by graphviz version 8.1.0 (0)
 -->
<!-- Pages: 1 -->
<svg width="68pt" height="304pt"
 viewBox="0.00 0.00 68.25 303.50" xmlns="http://www.w3.org/2000/svg" xmlns:xlink="http://www.w3.org/1999/xlink">
<g id="page0,1_graph0" class="graph" transform="scale(1 1) rotate(0) translate(4 299.5)">
<polygon fill="white" stroke="none" points="-4,4 -4,-299.5 64.25,-299.5 64.25,4 -4,4"/>
<!-- 0 -->
<g id="node1" class="node">
<title>0</title>
<path fill="none" stroke="black" d="M12,-0.5C12,-0.5 48.25,-0.5 48.25,-0.5 54.25,-0.5 60.25,-6.5 60.25,-12.5 60.25,-12.5 60.25,-62 60.25,-62 60.25,-68 54.25,-74 48.25,-74 48.25,-74 12,-74 12,-74 6,-74 0,-68 0,-62 0,-62 0,-12.5 0,-12.5 0,-6.5 6,-0.5 12,-0.5"/>
<text text-anchor="middle" x="29.88" y="-56.7" font-family="Times,serif" font-size="14.00"> </text>
<polyline fill="none" stroke="black" points="0,-49.5 60.25,-49.5"/>
<text text-anchor="middle" x="30.12" y="-32.2" font-family="Times,serif" font-size="14.00">EqlTo 1</text>
<polyline fill="none" stroke="black" points="0,-25 60.25,-25"/>
<text text-anchor="middle" x="29.88" y="-7.7" font-family="Times,serif" font-size="14.00"> </text>
</g>
<!-- 1 -->
<g id="node2" class="node">
<title>1</title>
<path fill="none" stroke="black" d="M15.12,-111C15.12,-111 45.12,-111 45.12,-111 51.12,-111 57.12,-117 57.12,-123 57.12,-123 57.12,-172.5 57.12,-172.5 57.12,-178.5 51.12,-184.5 45.12,-184.5 45.12,-184.5 15.12,-184.5 15.12,-184.5 9.12,-184.5 3.12,-178.5 3.12,-172.5 3.12,-172.5 3.12,-123 3.12,-123 3.12,-117 9.12,-111 15.12,-111"/>
<text text-anchor="middle" x="30" y="-167.2" font-family="Times,serif" font-size="14.00"> </text>
<polyline fill="none" stroke="black" points="3.12,-160 56.88,-160"/>
<text text-anchor="middle" x="30" y="-142.7" font-family="Times,serif" font-size="14.00">Dec</text>
<polyline fill="none" stroke="black" points="3.12,-135.5 56.88,-135.5"/>
<text text-anchor="middle" x="30" y="-118.2" font-family="Times,serif" font-size="14.00"> </text>
</g>
<!-- 1&#45;&gt;0 -->
<g id="edge1" class="edge">
<title>1:o0&#45;&gt;0:i0</title>
<path fill="none" stroke="black" d="M30.12,-110.5C30.12,-98.88 30.12,-93.58 30.12,-85.42"/>
<polygon fill="black" stroke="black" points="33.63,-85.5 30.12,-75.5 26.63,-85.5 33.63,-85.5"/>
</g>
<!-- 2 -->
<g id="node3" class="node">
<title>2</title>
<path fill="none" stroke="black" d="M16.12,-221.5C16.12,-221.5 46.12,-221.5 46.12,-221.5 52.12,-221.5 58.12,-227.5 58.12,-233.5 58.12,-233.5 58.12,-283 58.12,-283 58.12,-289 52.12,-295 46.12,-295 46.12,-295 16.12,-295 16.12,-295 10.12,-295 4.12,-289 4.12,-283 4.12,-283 4.12,-233.5 4.12,-233.5 4.12,-227.5 10.12,-221.5 16.12,-221.5"/>
<text text-anchor="middle" x="30.5" y="-277.7" font-family="Times,serif" font-size="14.00"> </text>
<polyline fill="none" stroke="black" points="4.12,-270.5 57.38,-270.5"/>
<text text-anchor="middle" x="30.75" y="-253.2" font-family="Times,serif" font-size="14.00">Lit 2</text>
<polyline fill="none" stroke="black" points="4.12,-246 57.38,-246"/>
<text text-anchor="middle" x="30.5" y="-228.7" font-family="Times,serif" font-size="14.00"> </text>
</g>
<!-- 2&#45;&gt;1 -->
<g id="edge2" class="edge">
<title>2:o0&#45;&gt;1:i0</title>
<path fill="none" stroke="black" d="M30.12,-221C30.12,-209.38 30.12,-204.08 30.12,-195.92"/>
<polygon fill="black" stroke="black" points="33.63,-196 30.12,-186 26.63,-196 33.63,-196"/>
</g>
</g>
</svg>
