<?xml version="1.0" encoding="UTF-8" standalone="no"?>
<!DOCTYPE svg PUBLIC "-//W3C//DTD SVG 1.1//EN"
 "http://www.w3.org/Graphics/SVG/1.1/DTD/svg11.dtd">
<!-- Generated by graphviz version 8.1.0 (0)
 -->
<!-- Pages: 1 -->
<svg width="68pt" height="525pt"
 viewBox="0.00 0.00 68.25 524.50" xmlns="http://www.w3.org/2000/svg" xmlns:xlink="http://www.w3.org/1999/xlink">
<g id="page0,1_graph0" class="graph" transform="scale(1 1) rotate(0) translate(4 520.5)">
<polygon fill="white" stroke="none" points="-4,4 -4,-520.5 64.25,-520.5 64.25,4 -4,4"/>
<!-- 0 -->
<g id="node1" class="node">
<title>0</title>
<path fill="none" stroke="black" d="M16.12,-0.5C16.12,-0.5 46.12,-0.5 46.12,-0.5 52.12,-0.5 58.12,-6.5 58.12,-12.5 58.12,-12.5 58.12,-62 58.12,-62 58.12,-68 52.12,-74 46.12,-74 46.12,-74 16.12,-74 16.12,-74 10.12,-74 4.12,-68 4.12,-62 4.12,-62 4.12,-12.5 4.12,-12.5 4.12,-6.5 10.12,-0.5 16.12,-0.5"/>
<text text-anchor="middle" x="30.5" y="-56.7" font-family="Times,serif" font-size="14.00"> </text>
<polyline fill="none" stroke="black" points="4.12,-49.5 57.38,-49.5"/>
<text text-anchor="middle" x="30.75" y="-32.2" font-family="Times,serif" font-size="14.00">Ite 0 1</text>
<polyline fill="none" stroke="black" points="4.12,-25 57.38,-25"/>
<text text-anchor="middle" x="30.5" y="-7.7" font-family="Times,serif" font-size="14.00"> </text>
</g>
<!-- 1 -->
<g id="node2" class="node">
<title>1</title>
<path fill="none" stroke="black" d="M12,-111C12,-111 48.25,-111 48.25,-111 54.25,-111 60.25,-117 60.25,-123 60.25,-123 60.25,-172.5 60.25,-172.5 60.25,-178.5 54.25,-184.5 48.25,-184.5 48.25,-184.5 12,-184.5 12,-184.5 6,-184.5 0,-178.5 0,-172.5 0,-172.5 0,-123 0,-123 0,-117 6,-111 12,-111"/>
<text text-anchor="middle" x="29.88" y="-167.2" font-family="Times,serif" font-size="14.00"> </text>
<polyline fill="none" stroke="black" points="0,-160 60.25,-160"/>
<text text-anchor="middle" x="30.12" y="-142.7" font-family="Times,serif" font-size="14.00">EqlTo 1</text>
<polyline fill="none" stroke="black" points="0,-135.5 60.25,-135.5"/>
<text text-anchor="middle" x="29.88" y="-118.2" font-family="Times,serif" font-size="14.00"> </text>
</g>
<!-- 1&#45;&gt;0 -->
<g id="edge2" class="edge">
<title>1:o0&#45;&gt;0:i0</title>
<path fill="none" stroke="black" d="M30.12,-110.5C30.12,-98.88 30.12,-93.58 30.12,-85.42"/>
<polygon fill="black" stroke="black" points="33.63,-85.5 30.12,-75.5 26.63,-85.5 33.63,-85.5"/>
</g>
<!-- 2 -->
<g id="node3" class="node">
<title>2</title>
<path fill="none" stroke="black" d="M15.12,-221.5C15.12,-221.5 45.12,-221.5 45.12,-221.5 51.12,-221.5 57.12,-227.5 57.12,-233.5 57.12,-233.5 57.12,-283 57.12,-283 57.12,-289 51.12,-295 45.12,-295 45.12,-295 15.12,-295 15.12,-295 9.12,-295 3.12,-289 3.12,-283 3.12,-283 3.12,-233.5 3.12,-233.5 3.12,-227.5 9.12,-221.5 15.12,-221.5"/>
<text text-anchor="middle" x="30" y="-277.7" font-family="Times,serif" font-size="14.00"> </text>
<polyline fill="none" stroke="black" points="3.12,-270.5 56.88,-270.5"/>
<text text-anchor="middle" x="30" y="-253.2" font-family="Times,serif" font-size="14.00">Dec</text>
<polyline fill="none" stroke="black" points="3.12,-246 56.88,-246"/>
<text text-anchor="middle" x="30" y="-228.7" font-family="Times,serif" font-size="14.00"> </text>
</g>
<!-- 2&#45;&gt;1 -->
<g id="edge3" class="edge">
<title>2:o0&#45;&gt;1:i0</title>
<path fill="none" stroke="black" d="M30.12,-221C30.12,-209.38 30.12,-204.08 30.12,-195.92"/>
<polygon fill="black" stroke="black" points="33.63,-196 30.12,-186 26.63,-196 33.63,-196"/>
</g>
<!-- 3 -->
<g id="node4" class="node">
<title>3</title>
<path fill="none" stroke="black" d="M16.12,-332C16.12,-332 46.12,-332 46.12,-332 52.12,-332 58.12,-338 58.12,-344 58.12,-344 58.12,-393.5 58.12,-393.5 58.12,-399.5 52.12,-405.5 46.12,-405.5 46.12,-405.5 16.12,-405.5 16.12,-405.5 10.12,-405.5 4.12,-399.5 4.12,-393.5 4.12,-393.5 4.12,-344 4.12,-344 4.12,-338 10.12,-332 16.12,-332"/>
<text text-anchor="middle" x="30.5" y="-388.2" font-family="Times,serif" font-size="14.00"> </text>
<polyline fill="none" stroke="black" points="4.12,-381 57.38,-381"/>
<text text-anchor="middle" x="30.75" y="-363.7" font-family="Times,serif" font-size="14.00">Lit 2</text>
<polyline fill="none" stroke="black" points="4.12,-356.5 57.38,-356.5"/>
<text text-anchor="middle" x="30.5" y="-339.2" font-family="Times,serif" font-size="14.00"> </text>
</g>
<!-- 3&#45;&gt;2 -->
<g id="edge4" class="edge">
<title>3:o0&#45;&gt;2:i0</title>
<path fill="none" stroke="black" d="M30.12,-331.5C30.12,-319.88 30.12,-314.58 30.12,-306.42"/>
<polygon fill="black" stroke="black" points="33.63,-306.5 30.12,-296.5 26.63,-306.5 33.63,-306.5"/>
</g>
<!-- 4 -->
<g id="node5" class="node">
<title>4</title>
<path fill="none" stroke="black" d="M16.12,-442.5C16.12,-442.5 46.12,-442.5 46.12,-442.5 52.12,-442.5 58.12,-448.5 58.12,-454.5 58.12,-454.5 58.12,-504 58.12,-504 58.12,-510 52.12,-516 46.12,-516 46.12,-516 16.12,-516 16.12,-516 10.12,-516 4.12,-510 4.12,-504 4.12,-504 4.12,-454.5 4.12,-454.5 4.12,-448.5 10.12,-442.5 16.12,-442.5"/>
<text text-anchor="middle" x="30.5" y="-498.7" font-family="Times,serif" font-size="14.00"> </text>
<polyline fill="none" stroke="black" points="4.12,-491.5 57.38,-491.5"/>
<text text-anchor="middle" x="30.75" y="-474.2" font-family="Times,serif" font-size="14.00">Id</text>
<polyline fill="none" stroke="black" points="4.12,-467 57.38,-467"/>
<text text-anchor="middle" x="30.5" y="-449.7" font-family="Times,serif" font-size="14.00"> </text>
</g>
<!-- 4&#45;&gt;3 -->
<g id="edge1" class="edge">
<title>4:o0&#45;&gt;3:i0</title>
<path fill="none" stroke="black" d="M30.12,-442C30.12,-430.38 30.12,-425.08 30.12,-416.92"/>
<polygon fill="black" stroke="black" points="33.63,-417 30.12,-407 26.63,-417 33.63,-417"/>
</g>
</g>
</svg>
