<?xml version="1.0" encoding="UTF-8" standalone="no"?>
<!DOCTYPE svg PUBLIC "-//W3C//DTD SVG 1.1//EN"
 "http://www.w3.org/Graphics/SVG/1.1/DTD/svg11.dtd">
<!-- Generated by graphviz version 8.1.0 (0)
 -->
<!-- Pages: 1 -->
<svg width="148pt" height="118pt"
 viewBox="0.00 0.00 147.50 118.00" xmlns="http://www.w3.org/2000/svg" xmlns:xlink="http://www.w3.org/1999/xlink">
<g id="page0,1_graph0" class="graph" transform="scale(1 1) rotate(0) translate(4 114)">
<polygon fill="white" stroke="none" points="-4,4 -4,-114 143.5,-114 143.5,4 -4,4"/>
<!-- 0 -->
<g id="node1" class="node">
<title>0</title>
<path fill="none" stroke="black" d="M74.25,-0.5C74.25,-0.5 127.5,-0.5 127.5,-0.5 133.5,-0.5 139.5,-6.5 139.5,-12.5 139.5,-12.5 139.5,-24.5 139.5,-24.5 139.5,-30.5 133.5,-36.5 127.5,-36.5 127.5,-36.5 74.25,-36.5 74.25,-36.5 68.25,-36.5 62.25,-30.5 62.25,-24.5 62.25,-24.5 62.25,-12.5 62.25,-12.5 62.25,-6.5 68.25,-0.5 74.25,-0.5"/>
<text text-anchor="middle" x="72.12" y="-13.7" font-family="Times,serif" font-size="14.00"> </text>
<polyline fill="none" stroke="black" points="82,-0.5 82,-36.5"/>
<text text-anchor="middle" x="100.88" y="-13.45" font-family="Times,serif" font-size="14.00">Dec</text>
<polyline fill="none" stroke="black" points="119.75,-0.5 119.75,-36.5"/>
<text text-anchor="middle" x="129.62" y="-13.7" font-family="Times,serif" font-size="14.00"> </text>
</g>
<!-- 1 -->
<g id="node2" class="node">
<title>1</title>
<path fill="none" stroke="black" d="M12,-73.5C12,-73.5 69.75,-73.5 69.75,-73.5 75.75,-73.5 81.75,-79.5 81.75,-85.5 81.75,-85.5 81.75,-97.5 81.75,-97.5 81.75,-103.5 75.75,-109.5 69.75,-109.5 69.75,-109.5 12,-109.5 12,-109.5 6,-109.5 0,-103.5 0,-97.5 0,-97.5 0,-85.5 0,-85.5 0,-79.5 6,-73.5 12,-73.5"/>
<text text-anchor="middle" x="9.88" y="-86.7" font-family="Times,serif" font-size="14.00"> </text>
<polyline fill="none" stroke="black" points="19.75,-73.5 19.75,-109.5"/>
<text text-anchor="middle" x="40.88" y="-86.45" font-family="Times,serif" font-size="14.00">Lit 2</text>
<polyline fill="none" stroke="black" points="62,-73.5 62,-109.5"/>
<text text-anchor="middle" x="71.88" y="-86.7" font-family="Times,serif" font-size="14.00"> </text>
</g>
<!-- 1&#45;&gt;0 -->
<g id="edge1" class="edge">
<title>1:o0&#45;&gt;0:i0</title>
<path fill="none" stroke="black" d="M71.88,-73C71.88,-61.38 71.88,-56.08 71.88,-47.92"/>
<polygon fill="black" stroke="black" points="75.38,-48 71.88,-38 68.38,-48 75.38,-48"/>
</g>
</g>
</svg>
